<?xml version="1.0" encoding="UTF-8" standalone="no"?>
<!-- Created with Inkscape (http://www.inkscape.org/) -->

<svg
   width="86.251045mm"
   height="102.92291mm"
   viewBox="0 0 86.251045 102.92291"
   version="1.1"
   id="svg1"
   xml:space="preserve"
   xmlns="http://www.w3.org/2000/svg"
   xmlns:svg="http://www.w3.org/2000/svg"><defs
     id="defs1" /><g
     id="layer1"
     transform="translate(-9.6711222,-8.7713145)"><g
       id="g154"
       transform="translate(-64.415328,-73.778688)"><path
         style="fill:#f4b422"
         d="m 113.10937,176.64734 c -2.18281,-1.19597 -6.35,-3.46183 -9.26041,-5.03524 -6.89927,-3.72986 -9.983628,-5.81294 -13.230215,-8.93529 -5.403615,-5.19683 -8.520455,-10.92513 -9.946091,-18.27945 -0.431426,-2.22557 -0.503904,-3.82858 -0.503904,-11.14498 v -8.54553 l 3.770312,-0.82959 c 2.073672,-0.45628 6.092031,-1.32242 8.929687,-1.92476 2.837657,-0.60233 5.299549,-1.17157 5.470873,-1.26497 0.171324,-0.0934 3.207418,-2.96903 6.746878,-6.39028 10.07426,-9.73782 9.89727,-9.57826 10.20199,-9.19755 0.74182,0.92684 2.45109,4.57565 2.45109,5.23241 0,0.41229 0.0711,0.93491 0.15801,1.16139 0.0869,0.22647 2.08634,2.17756 4.44318,4.33575 l 4.28516,3.92397 5.01568,0.8744 c 8.10921,1.41369 20.85252,3.73241 21.3537,3.88542 0.25466,0.0777 0.46302,0.0423 0.46302,-0.0789 0,-0.30419 -5.30286,-5.31994 -17.91732,-16.94721 -1.89721,-1.74873 -3.45023,-2.97656 -3.76492,-2.97656 -0.2946,0 -1.32835,0.67248 -2.29722,1.4944 l -1.76159,1.4944 -2.01237,-2.08971 c -1.1068,-1.14935 -3.52907,-3.6673 -5.38281,-5.595446 -1.85375,-1.928151 -3.52079,-3.505729 -3.70454,-3.505729 -0.18374,0 -3.41674,2.982778 -7.18443,6.628395 -4.14266,4.00844 -6.99196,6.57405 -7.20862,6.49091 -0.19705,-0.0756 -1.24624,-0.73667 -2.331526,-1.46902 -1.08529,-0.73234 -2.228932,-1.33154 -2.541427,-1.33154 -0.387981,0 -3.168098,2.5383 -8.766157,8.00365 -4.508891,4.402 -8.301464,8.04158 -8.42794,8.08795 -0.385697,0.1414 -0.305336,-20.42198 0.08176,-20.92086 0.179524,-0.23137 2.529063,-1.19569 5.221199,-2.142934 2.692135,-0.947249 9.359634,-3.289988 14.816661,-5.206087 5.45703,-1.9161 11.49017,-4.060013 13.40697,-4.764251 l 3.48508,-1.280432 6.03992,2.103391 c 6.99945,2.43755 15.55246,5.470697 24.56074,8.709958 l 6.35,2.283375 v 20.88552 20.88551 l -0.62974,2.51355 c -2.72181,10.86379 -7.78157,17.10789 -19.3463,23.8747 -2.15164,1.25898 -16.94713,9.23213 -17.03491,9.17995 -0.0169,-0.01 -1.81665,-0.99677 -3.99947,-2.19273 z m 20.18771,-14.77526 c 0.17463,-0.17462 0.3175,-0.51181 0.3175,-0.7493 0,-0.23749 -1.84547,-3.21024 -4.10104,-6.60611 -2.25557,-3.39587 -4.10104,-6.26201 -4.10104,-6.36919 0,-0.10719 0.6716,-0.57391 1.49244,-1.03717 4.06999,-2.29696 6.42866,-6.84398 6.10852,-11.77594 -0.17082,-2.63141 -0.96015,-4.7828 -2.40515,-6.55541 -1.362,-1.67081 -3.79707,-3.36192 -6.01913,-4.18016 -1.65173,-0.60823 -1.93071,-0.62446 -12.24919,-0.71226 -8.46636,-0.072 -10.60232,-0.0215 -10.77772,0.25503 -0.24867,0.39206 -0.31309,36.72167 -0.0663,37.36491 0.24101,0.62805 8.43363,0.62805 8.67464,0 0.0883,-0.23018 0.1606,-3.02085 0.1606,-6.20149 v -5.78298 l 1.12448,-0.16571 c 0.61846,-0.0911 1.89508,-0.1282 2.83694,-0.0824 l 1.71246,0.0833 3.74816,6.03389 c 2.06149,3.31864 3.82317,6.10889 3.91485,6.20057 0.57815,0.57815 9.08351,0.82577 9.62894,0.28033 z m -22.83865,-20.63477 c -0.0773,-0.20136 -0.10773,-2.38581 -0.0677,-4.85432 l 0.0728,-4.4882 4.44565,-0.0726 c 5.18784,-0.0847 6.25097,0.12363 7.62097,1.49363 2.41361,2.41361 1.84053,5.91226 -1.21909,7.44251 -1.23407,0.61722 -1.63657,0.6676 -6.01734,0.75328 -3.81636,0.0746 -4.72109,0.0233 -4.8353,-0.2743 z"
         id="path155" /><path
         style="fill:#362619"
         d="m 107.81008,180.6912 c -13.828982,-7.58012 -16.793209,-9.48254 -21.251346,-13.63895 -6.83608,-6.3734 -11.155054,-14.886 -12.199509,-24.04496 -0.163039,-1.4297 -0.272022,-10.68084 -0.272731,-23.15104 -0.0011,-20.122317 0.01489,-20.796148 0.514364,-21.61531 0.28355,-0.465036 0.789121,-1.020798 1.12349,-1.235026 0.524454,-0.336015 8.146612,-3.054563 35.032602,-12.494861 3.07179,-1.078578 6.00752,-1.961051 6.52384,-1.961051 1.00588,0 9.11216,2.731927 28.76921,9.695615 11.56414,4.096703 12.36272,4.420511 13.29531,5.390986 l 0.99219,1.032491 v 21.249996 c 0,13.12177 -0.10542,22.10758 -0.27561,23.49202 -1.08285,8.809 -5.14034,16.85948 -11.66751,23.14956 -4.61463,4.44701 -8.13303,6.72377 -22.44025,14.52107 -4.50795,2.45679 -8.35756,4.39117 -8.73888,4.39117 -0.38541,0 -4.47207,-2.07771 -9.40517,-4.78171 z m 16.5748,-5.69661 c 11.13984,-5.94057 15.18199,-8.42147 18.49012,-11.34846 5.568,-4.92649 8.69104,-10.18128 10.61505,-17.86071 l 0.62974,-2.51355 v -20.88551 -20.88552 l -6.35,-2.283375 c -9.00828,-3.239261 -17.56129,-6.272408 -24.56074,-8.709958 l -6.03992,-2.103391 -3.48508,1.280432 c -1.9168,0.704238 -7.94994,2.848151 -13.40697,4.764251 -5.457029,1.916099 -12.124528,4.258838 -14.816663,5.206087 -2.692136,0.947244 -5.041675,1.911564 -5.221199,2.142934 -0.387094,0.49888 -0.467455,21.06226 -0.08176,20.92086 0.126476,-0.0464 3.919049,-3.68595 8.42794,-8.08795 5.598059,-5.46535 8.378176,-8.00365 8.766157,-8.00365 0.312495,0 1.456137,0.5992 2.541427,1.33154 1.085288,0.73235 2.134478,1.39341 2.331528,1.46902 0.21666,0.0831 3.06596,-2.48247 7.20862,-6.49091 3.76769,-3.645617 7.00069,-6.628395 7.18443,-6.628395 0.18375,0 1.85079,1.577578 3.70454,3.505729 1.85374,1.928146 4.27601,4.446096 5.38281,5.595446 l 2.01237,2.08971 1.76159,-1.4944 c 0.96887,-0.82192 2.00123,-1.4944 2.29414,-1.4944 0.51231,0 4.64489,3.68421 14.24559,12.7 2.24695,2.11005 4.84009,4.53161 5.76254,5.38125 1.67843,1.54594 2.08338,2.18675 1.21417,1.92137 -0.50118,-0.15301 -13.24449,-2.47173 -21.3537,-3.88542 l -5.01568,-0.8744 -4.28516,-3.92397 c -2.35684,-2.15819 -4.35627,-4.10928 -4.44318,-4.33575 -0.0869,-0.22648 -0.15801,-0.7491 -0.15801,-1.16139 0,-0.65676 -1.70927,-4.30557 -2.45109,-5.23241 -0.30472,-0.38071 -0.12773,-0.54027 -10.20199,9.19755 -3.53946,3.42125 -6.575556,6.29688 -6.74688,6.39028 -0.171324,0.0934 -2.633216,0.66264 -5.470873,1.26497 -2.837656,0.60234 -6.856015,1.46848 -8.929687,1.92476 l -3.770312,0.82959 v 8.54553 c 0,7.3164 0.07248,8.91941 0.503904,11.14498 1.425636,7.35432 4.542476,13.08262 9.946091,18.27945 3.246587,3.12235 6.330945,5.20543 13.230217,8.93529 3.92834,2.12372 12.90227,7.01542 13.25988,7.22797 0.0169,0.01 3.29111,-1.72042 7.27604,-3.84548 z m 0.56951,-13.0537 c -0.61576,-0.10035 -1.19457,-0.25746 -1.28625,-0.34914 -0.0917,-0.0917 -1.85336,-2.88193 -3.91485,-6.20057 l -3.74816,-6.03389 -1.71246,-0.0833 c -0.94186,-0.0458 -2.21848,-0.009 -2.83694,0.0824 l -1.12448,0.16571 v 5.78298 c 0,3.18064 -0.0723,5.97131 -0.1606,6.20149 -0.24101,0.62805 -8.43363,0.62805 -8.67464,0 -0.24683,-0.64324 -0.18241,-36.97285 0.0663,-37.36491 0.1754,-0.27654 2.31136,-0.32708 10.77772,-0.25503 10.31848,0.0878 10.59746,0.10403 12.24919,0.71226 2.22206,0.81824 4.65713,2.50935 6.01913,4.18016 1.445,1.77261 2.23433,3.924 2.40515,6.55541 0.32014,4.93196 -2.03853,9.47898 -6.10852,11.77594 -0.82084,0.46326 -1.49244,0.92998 -1.49244,1.03717 0,0.10718 1.84547,2.97332 4.10104,6.36919 2.25557,3.39587 4.10104,6.36862 4.10104,6.60611 0,0.92831 -0.55088,1.06761 -4.08781,1.03368 -1.89905,-0.0182 -3.95662,-0.11522 -4.57238,-0.21557 z m -3.64332,-21.18256 c 3.05962,-1.53025 3.6327,-5.0289 1.21909,-7.44251 -1.37,-1.37 -2.43313,-1.57836 -7.62097,-1.49363 l -4.44565,0.0726 -0.0728,4.4882 c -0.04,2.46851 -0.01,4.65296 0.0677,4.85432 0.11421,0.29761 1.01894,0.34894 4.8353,0.2743 4.38077,-0.0857 4.78327,-0.13606 6.01734,-0.75328 z"
         id="path154" /></g></g></svg>
